<?xml version="1.0" standalone="no"?>
<!DOCTYPE svg PUBLIC "-//W3C//DTD SVG 20010904//EN"
 "http://www.w3.org/TR/2001/REC-SVG-20010904/DTD/svg10.dtd">
<svg version="1.0" xmlns="http://www.w3.org/2000/svg"
 width="1280.000000pt" height="1280.000000pt" viewBox="0 0 1280.000000 1280.000000"
 preserveAspectRatio="xMidYMid meet">
<g transform="translate(0.000000,1280.000000) scale(0.100000,-0.100000)"
fill="#03a9f4" stroke="none">
<path d="M6290 10123 c-59 -60 -88 -134 -100 -260 -12 -133 -27 -158 -126
-208 -43 -22 -102 -48 -130 -57 -96 -33 -129 -82 -84 -123 14 -13 35 -17 77
-17 81 1 129 -22 164 -77 57 -90 33 -151 -83 -206 -94 -46 -184 -59 -348 -52
-171 7 -241 29 -310 96 -46 44 -60 73 -92 181 -17 59 -54 82 -92 57 -35 -23
-71 -139 -70 -227 2 -229 182 -310 692 -310 252 0 352 -10 391 -38 32 -24 60
-100 67 -185 11 -132 -20 -314 -58 -338 -5 -3 -35 4 -66 17 -31 13 -81 29
-109 35 -62 14 -66 27 -23 83 51 67 48 126 -7 147 -47 18 -178 -31 -248 -92
-31 -28 -38 -30 -63 -21 -49 20 -185 37 -293 37 -101 0 -107 -1 -150 -30 -24
-16 -66 -41 -94 -55 -86 -43 -153 -152 -203 -331 l-29 -104 -46 -16 c-25 -9
-60 -27 -79 -40 -111 -78 -137 -113 -119 -162 15 -40 54 -51 124 -36 32 6 60
9 64 5 3 -3 -4 -45 -15 -94 -12 -48 -22 -102 -22 -120 0 -30 -3 -32 -33 -32
-42 0 -191 50 -259 87 -67 36 -153 115 -166 152 -13 38 17 126 87 253 99 181
239 465 251 509 44 162 23 282 -63 349 -63 50 -225 98 -271 81 -64 -25 -53
-78 33 -163 61 -59 91 -120 91 -184 0 -43 -35 -155 -72 -229 -80 -160 -228
-332 -305 -355 -130 -39 -208 108 -138 258 39 84 30 122 -26 122 -20 0 -48
-18 -99 -66 -71 -65 -145 -108 -207 -120 -23 -4 -51 3 -112 30 -206 93 -363
81 -399 -31 -10 -31 -11 -51 -2 -82 17 -63 96 -161 160 -198 82 -47 106 -69
129 -116 26 -53 27 -130 5 -244 -18 -91 -14 -129 16 -138 35 -11 59 5 95 60
44 70 101 108 159 108 85 -2 136 -53 136 -135 0 -81 -76 -279 -151 -394 -64
-98 -122 -155 -194 -189 -81 -38 -119 -41 -183 -16 -95 38 -152 21 -152 -44 0
-22 14 -42 58 -85 71 -70 151 -110 231 -117 51 -5 68 -2 113 20 30 15 81 53
115 85 61 58 197 254 269 387 47 87 148 237 190 282 28 29 37 33 82 33 70 0
119 -21 240 -104 109 -74 162 -125 162 -155 0 -10 -25 -36 -60 -61 -33 -24
-72 -59 -86 -77 -14 -18 -29 -33 -34 -33 -6 0 -23 29 -39 65 -22 48 -37 68
-58 76 -35 13 -72 -4 -91 -43 -19 -40 -27 -169 -13 -223 l12 -46 -48 -50 c-27
-27 -69 -72 -95 -99 -27 -27 -48 -55 -48 -62 0 -7 -17 -39 -37 -72 l-37 -60 1
-128 c1 -108 4 -132 19 -155 11 -14 31 -48 45 -74 30 -55 153 -196 178 -204
15 -4 17 -21 17 -133 -1 -146 13 -196 59 -208 45 -11 74 11 102 76 15 33 32
60 39 60 8 0 32 -20 55 -45 22 -24 61 -57 85 -72 71 -45 61 -65 -86 -177 -157
-121 -269 -160 -337 -117 -31 19 -145 183 -213 306 -66 119 -212 324 -266 374
-88 81 -138 106 -209 106 -144 -1 -341 -156 -303 -240 17 -37 51 -41 128 -16
82 26 115 26 183 1 127 -48 258 -220 336 -443 56 -160 37 -247 -58 -276 -77
-23 -154 16 -205 104 -30 50 -57 69 -87 60 -33 -11 -41 -49 -24 -120 48 -206
19 -307 -104 -370 -54 -27 -107 -80 -150 -149 -57 -91 -37 -188 45 -222 69
-29 233 -6 318 44 67 40 101 45 159 26 67 -22 114 -52 188 -120 59 -54 93 -66
117 -42 19 19 14 61 -13 120 -75 161 23 306 163 241 80 -37 232 -225 298 -368
89 -192 79 -285 -42 -402 -45 -43 -54 -57 -54 -87 0 -27 6 -40 26 -53 23 -15
33 -15 87 -4 122 25 223 87 253 157 23 53 27 152 11 230 -16 72 -134 324 -217
459 -100 163 -157 304 -142 346 29 74 177 171 344 225 105 34 113 30 121 -59
3 -34 14 -84 23 -110 21 -62 13 -71 -53 -56 -28 7 -62 9 -77 5 -35 -9 -60 -48
-51 -83 12 -49 159 -163 211 -163 25 0 39 -14 49 -50 38 -136 73 -225 114
-286 46 -68 61 -81 161 -139 112 -65 107 -63 210 -55 103 9 202 24 266 41 39
10 44 9 87 -24 47 -36 136 -75 194 -84 86 -14 111 68 47 152 -19 26 -33 52
-31 59 3 7 29 18 58 25 30 6 79 23 109 36 30 13 59 21 64 18 23 -15 46 -98 55
-200 15 -166 -9 -294 -62 -327 -44 -28 -142 -38 -387 -41 -259 -2 -366 -15
-485 -56 -181 -63 -243 -193 -184 -385 23 -76 51 -114 84 -114 33 0 52 28 71
104 45 182 166 248 449 250 156 0 216 -12 318 -67 90 -47 105 -92 62 -177 -32
-63 -80 -90 -162 -90 -85 0 -118 -29 -97 -85 8 -19 58 -45 144 -74 100 -33
164 -74 185 -118 11 -22 22 -77 26 -129 12 -141 59 -243 130 -283 20 -12 49
-21 63 -21 35 0 87 22 109 47 29 33 67 163 77 261 15 155 32 174 228 253 110
45 139 70 128 113 -7 30 -50 46 -123 46 -30 0 -67 7 -83 15 -36 18 -90 108
-90 149 0 45 60 95 155 130 72 26 95 30 236 34 178 5 239 -5 329 -49 74 -38
111 -88 140 -190 21 -77 38 -99 77 -99 85 0 136 245 77 366 -24 49 -94 97
-180 124 -139 42 -236 53 -524 55 -322 3 -352 8 -387 70 -37 67 -45 144 -29
304 13 132 30 191 54 191 3 0 29 -9 57 -20 27 -11 76 -27 108 -36 32 -9 61
-22 64 -30 3 -7 -7 -28 -23 -46 -43 -52 -57 -94 -42 -126 11 -22 21 -28 54
-30 52 -4 145 33 216 84 57 41 48 41 225 -1 72 -18 192 -19 247 -4 21 6 60 26
86 45 26 19 51 34 55 34 21 0 70 49 108 109 47 72 103 208 115 281 6 38 12 46
37 53 64 19 117 52 170 107 62 65 67 89 30 126 -25 24 -29 25 -100 19 -46 -5
-75 -4 -75 2 0 5 9 45 20 88 11 43 20 93 20 111 0 46 22 49 121 18 177 -55
276 -117 325 -200 l25 -42 -21 -64 c-22 -65 -51 -122 -158 -313 -70 -125 -156
-321 -178 -404 -27 -103 -12 -216 34 -264 62 -66 200 -127 284 -127 29 0 41 6
54 25 22 33 11 59 -52 127 -95 104 -115 208 -65 351 26 74 102 202 167 282 52
61 155 140 201 151 38 10 83 -16 114 -65 39 -61 38 -111 -2 -194 -37 -74 -35
-113 6 -123 29 -7 58 9 125 71 64 59 174 118 217 117 20 -1 72 -20 117 -42 44
-22 108 -45 141 -51 120 -23 224 23 239 104 17 92 -78 234 -190 281 -40 17
-102 90 -116 137 -9 30 -7 61 10 157 27 159 18 197 -44 190 -21 -2 -38 -18
-68 -62 -54 -78 -83 -98 -149 -104 -59 -5 -109 14 -127 47 -5 11 -10 52 -10
91 0 111 55 257 144 383 81 116 123 162 171 192 42 26 57 30 114 28 36 0 86
-8 110 -17 57 -21 94 -20 114 2 34 38 15 88 -58 154 -88 79 -201 118 -279 97
-49 -13 -148 -82 -198 -137 -45 -50 -171 -241 -238 -362 -70 -126 -163 -263
-196 -289 -31 -24 -89 -27 -146 -7 -80 29 -294 182 -319 228 -11 20 -7 26 32
57 24 20 64 55 88 78 24 24 49 43 56 43 8 0 21 -20 30 -44 29 -76 88 -111 130
-76 35 29 63 187 45 261 l-13 51 41 37 c75 67 142 154 181 235 37 81 38 82 36
197 -2 114 -3 117 -41 185 -44 80 -154 215 -189 234 -30 16 -37 34 -25 66 21
55 2 204 -34 259 -12 18 -25 25 -50 25 -39 0 -57 -18 -86 -82 -11 -26 -25 -50
-31 -54 -6 -3 -31 15 -56 40 -25 26 -65 61 -89 78 -24 17 -44 37 -44 43 0 38
242 220 336 252 54 18 117 13 146 -14 28 -24 125 -170 194 -290 176 -305 319
-460 451 -488 58 -12 136 12 212 65 83 59 124 109 124 152 0 61 -42 69 -172
33 -76 -20 -128 -15 -187 20 -166 97 -359 488 -315 635 10 34 20 45 54 61 23
10 53 19 67 19 43 0 113 -42 148 -90 56 -76 61 -80 92 -80 51 0 63 58 35 175
-8 33 -15 90 -15 126 0 55 4 73 26 105 31 45 47 59 91 78 17 8 53 34 79 58
145 134 139 297 -12 328 -73 15 -170 -6 -278 -60 -43 -22 -90 -40 -103 -40
-39 0 -157 65 -234 130 -70 59 -103 72 -127 48 -18 -18 -15 -67 7 -102 28 -45
43 -111 35 -152 -4 -23 -22 -53 -50 -82 -39 -40 -46 -44 -76 -38 -149 30 -370
309 -407 513 -20 109 5 190 86 272 41 41 63 77 63 102 0 19 -41 49 -69 49 -53
0 -155 -39 -224 -86 -91 -61 -111 -103 -105 -218 3 -57 13 -102 32 -151 43
-107 148 -319 211 -425 61 -102 92 -165 119 -247 16 -47 16 -55 2 -81 -38 -74
-165 -158 -310 -206 -125 -41 -146 -36 -146 39 0 18 -9 61 -20 96 -10 34 -17
66 -14 71 3 4 39 7 80 6 69 -3 77 -1 95 21 30 36 24 69 -19 110 -55 52 -113
90 -168 109 -42 15 -50 23 -57 52 -44 175 -125 331 -194 375 -18 11 -61 38
-95 60 -60 39 -64 40 -166 43 -69 3 -124 -1 -165 -11 -34 -9 -88 -21 -119 -28
l-57 -12 -42 37 c-47 40 -131 76 -197 84 -86 10 -110 -60 -47 -139 19 -24 35
-51 35 -60 0 -12 -30 -26 -110 -53 -60 -20 -114 -36 -120 -36 -30 0 -61 157
-61 322 -1 82 23 167 54 196 36 34 114 44 372 47 234 3 307 9 449 42 85 19
128 36 184 75 77 53 107 165 77 293 -19 85 -46 132 -80 141 -45 11 -71 -16
-90 -96 -28 -116 -75 -170 -187 -218 -61 -25 -70 -27 -248 -27 -170 0 -191 2
-259 24 -86 29 -150 74 -164 114 -8 24 -4 39 19 84 40 78 66 94 163 103 89 8
111 19 111 60 0 38 -21 53 -142 100 -58 22 -121 51 -140 63 -48 32 -78 98 -78
172 0 172 -88 315 -193 315 -34 0 -46 -7 -87 -47z m1199 -1793 c58 -29 78 -61
86 -135 6 -54 4 -71 -14 -107 -29 -61 -92 -123 -159 -157 -68 -34 -95 -61 -90
-92 5 -37 36 -50 83 -33 88 31 189 9 247 -53 36 -39 88 -143 88 -175 0 -33
-31 -68 -60 -68 -11 0 -29 14 -42 30 -45 61 -149 118 -245 134 -34 6 -45 4
-62 -13 -12 -12 -21 -28 -21 -36 0 -8 27 -41 59 -73 70 -67 101 -130 108 -219
6 -70 -11 -108 -74 -164 -34 -30 -37 -30 -50 -13 -7 10 -13 21 -13 25 0 9 -43
25 -120 45 -45 11 -93 15 -156 12 -85 -4 -96 -7 -152 -41 -33 -20 -63 -37 -66
-37 -3 0 -6 24 -6 53 0 99 -36 192 -108 284 -52 65 -103 97 -142 89 -16 -3
-32 -1 -35 3 -7 12 14 109 31 142 16 32 80 71 150 92 60 18 150 10 201 -17 37
-20 68 -14 83 14 31 58 -109 185 -225 205 -65 11 -71 14 -84 41 -17 38 -5 61
42 85 79 41 251 8 292 -55 10 -14 29 -56 44 -93 30 -74 46 -89 83 -80 36 9 41
26 44 152 2 124 20 184 63 214 90 64 153 76 220 41z m-2054 -9 c57 -26 105
-69 123 -111 8 -19 19 -85 23 -148 8 -125 17 -145 63 -140 27 3 33 9 49 53 50
135 122 190 252 189 73 0 127 -19 139 -49 9 -25 -5 -75 -25 -85 -10 -6 -33
-10 -51 -10 -82 0 -238 -115 -238 -176 0 -57 37 -68 111 -34 75 34 142 27 240
-22 84 -43 84 -43 106 -103 28 -77 30 -120 6 -110 -41 17 -54 16 -88 -5 -39
-24 -94 -99 -146 -200 -29 -56 -33 -75 -34 -137 0 -40 -2 -73 -5 -73 -3 0 -37
16 -76 36 -69 35 -75 36 -175 36 -147 -1 -239 -33 -239 -83 0 -40 -25 -31 -83
31 l-59 63 4 87 c5 101 26 147 103 219 36 33 45 49 43 70 -10 83 -178 41 -290
-73 -46 -46 -73 -59 -98 -46 -43 23 -33 104 26 207 48 83 153 119 258 89 69
-20 96 -11 96 34 0 31 -24 53 -113 104 -60 34 -111 85 -138 138 -17 33 -20 53
-16 99 7 80 24 110 82 141 59 32 95 34 150 9z m829 -853 c3 -18 7 -72 11 -121
5 -80 3 -89 -16 -105 -11 -9 -25 -27 -30 -39 -5 -13 -13 -23 -18 -23 -17 0
-51 52 -51 78 0 30 80 242 91 242 4 0 10 -15 13 -32z m324 -86 c47 -109 49
-120 27 -162 -15 -29 -55 -43 -55 -19 0 6 -9 22 -20 36 -17 22 -20 41 -20 119
0 90 5 124 19 124 3 0 25 -44 49 -98z m665 -317 c1 -5 -41 -36 -93 -68 -86
-52 -99 -57 -135 -51 -54 9 -55 10 -44 44 15 43 53 61 153 75 102 14 116 14
119 0z m-1578 -11 c94 -8 109 -14 131 -55 21 -41 13 -56 -33 -62 -30 -4 -51 2
-100 29 -139 75 -181 113 -110 101 17 -3 68 -9 112 -13z m2424 -88 c50 -46 91
-139 91 -206 0 -51 -4 -60 -55 -127 -30 -40 -55 -82 -55 -93 0 -11 12 -27 26
-36 25 -17 28 -16 131 37 99 51 109 54 178 54 71 0 74 -1 120 -40 64 -54 87
-98 82 -154 -6 -53 -29 -86 -91 -128 -43 -29 -56 -33 -115 -33 -60 0 -78 5
-160 45 -94 46 -137 55 -159 33 -21 -21 -13 -43 43 -113 30 -38 58 -84 61
-102 14 -74 -49 -216 -115 -260 -40 -27 -48 -26 -74 10 -19 25 -19 28 -3 85
19 68 20 182 2 231 -7 19 -24 44 -39 55 -22 16 -31 18 -51 8 -15 -7 -28 -23
-32 -39 -25 -114 -36 -138 -92 -194 -35 -35 -75 -63 -105 -74 -45 -17 -50 -17
-112 0 -36 9 -65 21 -65 26 0 6 7 21 16 35 23 34 12 99 -31 189 -47 98 -106
170 -165 203 -27 15 -50 30 -50 34 0 4 17 16 38 27 74 38 141 128 193 256 35
87 36 113 8 149 -24 31 -20 39 33 55 87 28 163 6 238 -69 50 -50 69 -88 80
-157 11 -66 23 -83 60 -83 35 0 58 26 76 86 20 66 18 134 -7 206 -23 69 -20
100 13 115 29 13 45 7 87 -31z m-1354 17 c-3 -10 -8 -49 -11 -87 -5 -84 -18
-108 -110 -184 -73 -59 -78 -57 -71 31 7 104 24 135 103 200 71 58 102 71 89
40z m-1941 -26 c20 -27 20 -27 1 -85 -43 -126 -5 -302 65 -302 30 0 47 25 54
82 9 66 42 124 98 170 94 77 132 90 208 68 59 -17 67 -25 46 -49 -29 -32 -22
-71 35 -196 55 -124 99 -179 169 -215 22 -11 40 -25 40 -30 0 -5 -18 -19 -40
-30 -81 -42 -137 -124 -190 -279 -25 -75 -25 -92 0 -124 l21 -26 -32 -16 c-17
-9 -55 -19 -85 -22 -59 -6 -89 7 -170 74 -57 46 -83 89 -94 158 -11 70 -24 87
-64 83 -27 -3 -34 -10 -53 -58 -27 -66 -30 -165 -7 -225 8 -22 18 -47 20 -56
6 -18 -41 -79 -60 -79 -24 0 -97 73 -122 123 -47 92 -33 193 41 283 43 52 46
89 9 106 -23 11 -36 7 -123 -40 -159 -84 -253 -81 -339 12 -64 69 -68 146 -11
211 53 60 90 76 171 76 68 0 80 -4 175 -52 100 -50 104 -51 128 -35 35 23 32
43 -19 110 -68 91 -81 159 -49 251 20 61 103 148 135 143 11 -2 30 -15 42 -31z
m1328 -13 c73 -57 93 -88 114 -181 25 -113 5 -121 -86 -36 -72 66 -85 89 -94
163 -3 30 -9 65 -12 78 -9 34 10 28 78 -24z m1271 -127 c-31 -50 -127 -168
-143 -177 -25 -13 -87 -13 -96 1 -6 10 -1 25 26 79 4 8 47 36 96 62 89 47 133
61 117 35z m-1878 -55 c61 -32 91 -53 94 -67 1 -11 10 -28 18 -37 8 -9 12 -22
8 -27 -10 -18 -97 -13 -121 7 -17 14 -83 104 -117 160 -16 24 28 11 118 -36z
m1472 -314 c40 -18 73 -35 73 -38 0 -3 -26 -17 -58 -33 -70 -33 -142 -36 -236
-7 -100 31 -85 57 57 95 74 20 84 19 164 -17z m-961 -2 c28 -13 54 -28 58 -34
16 -26 -107 -82 -180 -82 -45 0 -174 52 -174 70 0 5 26 22 58 38 76 40 163 43
238 8z m1224 -261 c16 -8 48 -41 70 -73 22 -31 50 -69 62 -84 12 -15 19 -31
15 -35 -4 -3 -54 17 -111 45 -91 45 -105 56 -111 82 -4 16 -11 32 -16 35 -16
10 -10 25 14 35 32 13 44 12 77 -5z m-1618 -13 c4 -4 -2 -26 -13 -49 -17 -35
-35 -50 -104 -88 -76 -41 -115 -54 -115 -39 0 4 20 36 44 73 45 67 79 104 106
114 18 7 71 0 82 -11z m614 -86 c-3 -28 -13 -75 -21 -103 -14 -46 -25 -60 -85
-108 -38 -30 -74 -55 -80 -55 -8 0 -10 13 -6 38 3 20 8 57 11 82 3 25 13 57
23 72 26 40 142 139 154 132 6 -4 8 -26 4 -58z m389 7 c68 -53 91 -99 99 -200
4 -46 4 -83 1 -83 -3 0 -38 27 -79 60 -82 66 -100 99 -112 198 -10 95 -4 97
91 25z m509 -260 c89 -51 118 -72 112 -82 -4 -6 -154 5 -205 15 -31 7 -81 57
-81 83 0 19 4 21 79 29 8 1 51 -19 95 -45z m-1333 24 c10 -14 -9 -62 -31 -82
-13 -12 -46 -20 -102 -25 -46 -5 -100 -11 -122 -15 -60 -12 -42 10 64 75 80
50 102 58 140 58 25 -1 48 -6 51 -11z m-343 -199 c2 -14 11 -33 20 -42 43 -38
229 -59 326 -37 21 5 61 23 88 40 27 17 51 31 54 31 2 0 4 -22 4 -48 0 -67 19
-125 70 -212 77 -131 142 -186 191 -159 34 18 40 -1 24 -66 -21 -81 -40 -104
-121 -147 -59 -32 -78 -37 -135 -38 -45 0 -81 6 -112 20 -52 23 -91 16 -100
-20 -9 -35 6 -60 69 -111 62 -52 106 -72 189 -86 46 -7 50 -10 57 -43 9 -46
-9 -73 -60 -88 -53 -16 -108 -15 -169 3 -73 22 -98 46 -144 140 -22 46 -47 86
-56 89 -12 5 -60 -15 -64 -27 0 -1 -4 -54 -8 -117 -9 -151 -29 -196 -107 -241
-73 -41 -119 -47 -177 -21 -57 26 -83 65 -92 143 -6 49 -3 66 14 103 30 60 79
108 161 156 75 44 95 68 86 105 -8 32 -37 39 -91 21 -131 -45 -236 8 -294 149
-36 87 -37 99 -11 125 31 31 56 24 119 -34 84 -77 156 -110 236 -108 29 1 55
24 55 49 0 7 -26 40 -58 72 -73 74 -94 117 -100 207 -5 82 6 111 70 180 45 49
61 51 66 12z m1963 -41 c41 -51 41 -52 37 -122 -6 -93 -36 -156 -103 -221 -84
-82 -73 -132 28 -121 74 9 165 57 220 117 50 54 61 58 95 34 35 -25 30 -85
-16 -163 -53 -91 -97 -124 -173 -129 -34 -3 -86 1 -115 8 -62 15 -84 5 -84
-40 0 -33 17 -49 96 -88 66 -33 121 -88 155 -154 18 -35 20 -52 15 -101 -9
-84 -23 -108 -86 -141 -67 -35 -99 -32 -180 17 -80 48 -94 78 -101 222 -6 137
-16 165 -58 165 -35 0 -44 -10 -72 -85 -44 -121 -93 -156 -224 -162 -102 -5
-148 14 -153 64 -4 39 26 73 66 73 40 0 119 40 185 94 48 40 57 52 57 80 0 17
-5 37 -12 44 -17 17 -65 15 -95 -5 -19 -13 -47 -18 -102 -18 -66 0 -85 5 -144
34 -59 28 -72 39 -88 76 -11 24 -22 64 -25 89 l-7 45 40 -2 c31 -1 48 5 72 26
51 43 102 108 127 162 28 59 57 181 51 207 -8 29 12 32 51 6 20 -14 52 -30 71
-36 53 -19 173 -14 268 10 76 19 88 25 105 54 25 42 40 36 99 -39z m-1202 -9
c5 -13 19 -31 31 -41 20 -17 21 -23 14 -130 -9 -162 -14 -162 -78 -1 -42 105
-44 131 -15 168 25 32 37 33 48 4z m380 -4 c12 -15 21 -38 21 -52 0 -28 -79
-222 -90 -222 -12 0 -20 58 -20 140 0 68 4 84 27 119 15 23 30 41 34 41 4 0
17 -12 28 -26z"/>
</g>
</svg>
