<?xml version="1.0" standalone="no"?>
<!DOCTYPE svg PUBLIC "-//W3C//DTD SVG 20010904//EN"
 "http://www.w3.org/TR/2001/REC-SVG-20010904/DTD/svg10.dtd">
<svg version="1.0" xmlns="http://www.w3.org/2000/svg"
 width="1280.000000pt" height="1280.000000pt" viewBox="0 0 1280.000000 1280.000000"
 preserveAspectRatio="xMidYMid meet">
<metadata>
Created by potrace 1.15, written by Peter Selinger 2001-2017
</metadata>
<g transform="translate(0.000000,1280.000000) scale(0.100000,-0.100000)"
fill="#03a9f4" stroke="none">
<path d="M6309 10157 c-72 -51 -115 -148 -129 -294 -10 -101 -19 -129 -51
-160 -25 -22 -116 -67 -202 -98 -96 -34 -132 -90 -87 -135 19 -19 49 -24 111
-20 14 0 45 -6 68 -16 76 -30 116 -139 72 -196 -25 -32 -142 -85 -217 -99 -35
-7 -120 -9 -209 -6 -124 4 -160 8 -205 26 -103 42 -147 90 -176 191 -26 91
-34 108 -65 121 -26 10 -34 9 -57 -8 -29 -22 -56 -87 -72 -175 -13 -71 8 -176
46 -225 27 -36 87 -74 152 -97 113 -40 193 -49 507 -56 355 -8 379 -12 408
-73 53 -108 41 -406 -18 -475 -2 -2 -17 4 -33 12 -17 9 -65 25 -109 37 -43 12
-79 23 -81 24 -2 2 12 23 31 48 42 55 52 89 35 125 -22 45 -59 56 -125 37 -73
-21 -123 -47 -168 -86 -25 -22 -40 -29 -53 -24 -30 14 -174 36 -267 41 -102 7
-160 -5 -202 -40 -15 -13 -54 -35 -85 -50 -49 -23 -64 -38 -104 -98 -46 -69
-94 -189 -115 -290 -9 -40 -15 -49 -37 -54 -69 -17 -195 -108 -219 -159 -13
-28 -14 -36 -2 -61 22 -44 62 -59 121 -45 79 18 78 19 58 -48 -11 -32 -22 -86
-26 -120 -8 -69 3 -67 -125 -30 -140 40 -289 138 -318 207 -11 26 -8 39 18
108 17 44 51 115 76 159 98 175 235 456 250 516 12 44 16 91 13 150 -4 79 -7
90 -39 134 -42 59 -110 98 -214 125 -94 24 -137 16 -153 -28 -13 -39 0 -66 71
-141 91 -96 104 -153 66 -277 -70 -227 -279 -485 -391 -484 -97 2 -140 136
-83 258 30 64 31 93 7 115 -35 32 -67 21 -143 -49 -78 -71 -145 -110 -206
-120 -32 -5 -51 0 -103 26 -224 113 -424 76 -424 -80 0 -85 88 -203 195 -260
87 -46 119 -99 119 -194 0 -39 -8 -108 -17 -153 -19 -94 -11 -128 33 -139 36
-9 51 2 99 71 66 97 141 123 225 80 56 -29 64 -108 25 -230 -76 -233 -197
-401 -331 -460 -68 -30 -98 -31 -164 -5 -65 26 -114 26 -140 0 -46 -46 -12
-117 93 -191 158 -111 268 -105 411 23 64 57 186 232 295 424 35 62 92 150
128 198 l64 86 54 0 c75 0 122 -21 248 -108 111 -77 147 -112 147 -141 0 -9
-23 -31 -51 -50 -28 -19 -66 -53 -86 -75 -19 -23 -37 -36 -40 -31 -47 116 -90
157 -142 136 -38 -16 -50 -42 -64 -132 -8 -60 -8 -93 1 -135 l11 -55 -45 -47
c-116 -119 -133 -140 -153 -182 -12 -25 -31 -60 -43 -79 -19 -31 -22 -47 -21
-164 1 -116 3 -132 22 -156 12 -14 32 -48 45 -76 26 -54 159 -205 181 -205 19
0 26 -26 15 -56 -13 -34 -13 -131 1 -193 28 -133 126 -137 179 -6 12 30 25 55
29 55 3 0 17 -16 31 -34 14 -19 51 -53 83 -76 32 -24 57 -50 57 -60 0 -23
-187 -172 -265 -210 -33 -17 -83 -33 -110 -36 -45 -6 -54 -3 -84 21 -34 29
-143 187 -200 290 -68 123 -205 316 -265 373 -131 125 -217 147 -348 85 -77
-36 -164 -112 -185 -161 -11 -27 -11 -38 -1 -60 21 -43 57 -49 136 -24 85 27
117 28 186 2 69 -26 130 -80 193 -172 136 -197 201 -425 141 -492 -13 -14 -44
-31 -69 -37 -42 -11 -51 -10 -95 12 -36 18 -59 39 -87 82 -44 66 -73 85 -106
67 -38 -20 -42 -51 -20 -157 35 -166 12 -262 -74 -313 -90 -52 -111 -69 -146
-115 -55 -73 -71 -108 -71 -160 0 -60 24 -100 75 -125 80 -39 218 -19 357 52
48 24 66 29 96 23 59 -11 129 -51 196 -111 71 -66 96 -79 129 -70 44 11 49 53
16 127 -60 135 -22 259 79 259 54 0 96 -26 175 -109 134 -140 240 -346 241
-466 0 -76 -22 -124 -87 -184 -60 -56 -79 -94 -65 -132 21 -62 117 -59 256 7
90 44 125 86 142 179 10 52 10 82 0 147 -11 69 -26 109 -96 249 -45 92 -103
201 -129 243 -63 105 -134 254 -141 298 -6 34 -2 41 45 91 60 63 151 115 278
158 118 40 123 39 123 -14 0 -23 9 -76 20 -116 12 -40 19 -75 17 -77 -2 -2
-28 2 -59 8 -67 14 -114 -1 -129 -40 -17 -43 -1 -79 58 -131 61 -55 106 -79
158 -88 28 -5 35 -11 40 -37 21 -99 63 -212 103 -276 47 -76 79 -108 137 -137
28 -14 63 -36 78 -49 15 -13 42 -27 60 -32 57 -15 353 19 405 47 16 8 23 6 38
-10 39 -43 183 -109 239 -109 40 0 75 37 75 79 0 38 -14 66 -58 113 -19 21
-22 28 -11 32 8 2 48 14 89 26 41 12 83 28 94 36 11 8 24 14 29 14 33 0 76
-246 62 -355 -10 -77 -35 -144 -59 -160 -41 -27 -131 -37 -381 -40 -299 -3
-432 -23 -550 -82 -102 -50 -142 -110 -152 -224 -7 -78 26 -204 63 -244 48
-52 105 -18 125 75 34 163 128 231 344 252 159 15 279 0 379 -46 114 -52 137
-97 94 -183 -29 -57 -76 -83 -152 -83 -88 0 -125 -28 -114 -86 5 -26 58 -59
136 -85 177 -58 222 -106 222 -234 0 -106 55 -245 115 -290 61 -47 132 -44
190 6 44 39 83 155 96 287 5 56 16 105 26 124 20 33 87 71 210 118 117 45 148
87 105 141 -16 19 -29 23 -90 24 -40 2 -85 8 -102 15 -40 16 -93 107 -88 151
10 98 259 171 504 150 206 -19 313 -97 339 -248 15 -94 89 -126 139 -60 57 74
72 257 29 344 -39 80 -139 129 -331 164 -98 18 -160 22 -382 23 -316 3 -351 9
-381 67 -34 68 -41 132 -29 274 12 132 24 190 41 201 6 3 33 -3 62 -15 29 -11
81 -28 116 -38 l63 -18 -40 -49 c-43 -51 -55 -87 -42 -121 12 -32 36 -47 73
-47 47 0 177 56 223 96 38 33 40 33 78 20 21 -8 50 -14 65 -14 14 0 48 -7 75
-15 56 -17 170 -19 233 -5 37 9 91 40 200 115 56 38 166 260 178 360 7 49 11
55 43 55 32 0 78 26 146 83 60 50 82 97 66 137 -17 40 -52 52 -128 44 -65 -7
-65 -7 -58 17 16 54 36 156 36 182 0 34 7 34 112 1 130 -41 203 -78 262 -134
80 -76 84 -91 47 -186 -17 -44 -65 -140 -108 -214 -80 -141 -165 -320 -204
-430 -29 -81 -32 -224 -7 -282 42 -95 316 -208 372 -153 40 40 28 82 -42 153
-56 56 -92 137 -92 205 1 166 175 446 335 538 28 16 61 29 76 29 26 0 76 -44
98 -87 20 -40 13 -104 -19 -163 -34 -64 -37 -100 -12 -123 34 -31 66 -21 135
41 35 33 99 78 142 102 74 41 79 42 118 30 22 -6 64 -25 92 -41 77 -43 182
-64 252 -50 149 30 181 150 78 291 -37 50 -100 101 -142 114 -23 7 -80 71
-103 115 -13 26 -8 123 11 194 28 105 7 177 -52 177 -28 0 -40 -11 -100 -98
-17 -24 -45 -50 -64 -58 -73 -30 -168 -8 -181 42 -14 55 2 177 34 259 43 110
143 267 215 337 81 79 160 94 277 53 58 -20 92 -19 118 5 47 44 19 110 -77
184 -82 63 -139 87 -210 88 -76 1 -129 -24 -216 -104 -68 -62 -193 -239 -271
-383 -60 -111 -179 -291 -205 -309 -31 -22 -104 -20 -155 3 -94 43 -304 202
-304 230 0 5 12 17 28 27 15 9 54 44 88 76 l61 58 26 -60 c29 -69 69 -95 117
-79 35 13 46 34 66 131 14 70 15 92 5 142 l-12 59 33 27 c58 48 146 162 185
240 38 75 38 76 36 192 -1 129 -5 149 -37 193 -12 17 -27 41 -33 55 -6 14 -34
52 -62 85 -71 84 -74 88 -105 110 -25 18 -26 23 -17 48 15 40 14 96 -5 180
-19 84 -44 117 -89 117 -38 0 -66 -27 -94 -92 -11 -27 -22 -48 -23 -48 -2 0
-30 25 -62 55 -32 30 -71 63 -87 72 -16 10 -29 23 -29 29 0 32 239 211 320
241 48 17 111 16 136 -2 25 -17 127 -164 174 -250 18 -33 80 -131 137 -217
156 -236 263 -324 391 -321 78 1 144 32 226 105 61 54 90 104 79 135 -20 57
-59 65 -161 33 -80 -25 -125 -25 -180 0 -86 39 -212 197 -278 349 -96 223 -82
347 43 358 66 5 116 -25 169 -102 35 -52 45 -60 76 -63 66 -6 82 48 53 178
-18 84 -19 184 -1 218 20 37 63 76 111 98 87 40 175 166 175 251 0 157 -182
195 -405 83 -44 -22 -90 -40 -103 -40 -39 0 -158 67 -228 130 -53 46 -75 60
-100 60 -62 0 -74 -57 -27 -137 41 -70 40 -147 -3 -200 -47 -58 -74 -63 -142
-28 -136 72 -299 294 -338 462 -28 119 -8 189 77 280 58 61 72 93 59 128 -22
58 -114 56 -235 -5 -143 -72 -183 -135 -172 -274 8 -110 99 -322 241 -564 42
-71 90 -167 107 -212 26 -72 28 -87 18 -112 -18 -45 -105 -115 -193 -158 -80
-38 -222 -84 -236 -75 -4 2 -10 33 -13 67 -3 35 -13 83 -22 107 -8 25 -12 48
-8 52 5 5 28 4 52 -2 24 -5 57 -7 73 -4 34 8 68 49 68 83 0 46 -139 160 -222
183 -30 7 -39 16 -43 37 -18 93 -71 224 -120 298 -44 67 -61 85 -102 103 -26
13 -57 31 -68 42 -11 10 -37 25 -57 34 -50 20 -220 21 -278 0 -23 -8 -56 -15
-72 -15 -16 0 -45 -7 -65 -15 -34 -15 -37 -14 -61 10 -53 53 -171 105 -239
105 -80 0 -97 -77 -33 -161 21 -29 37 -56 35 -60 -3 -3 -22 -10 -42 -14 -21
-4 -71 -19 -111 -35 l-72 -28 -16 30 c-17 33 -36 191 -37 299 0 71 24 158 51
182 33 30 114 40 367 43 201 2 272 7 360 24 194 36 291 80 334 151 77 127 20
399 -84 399 -33 0 -62 -39 -80 -110 -22 -84 -35 -109 -83 -152 -55 -50 -138
-78 -257 -88 -241 -19 -479 46 -501 137 -9 34 38 127 75 151 15 10 56 19 103
23 87 6 118 24 118 69 0 40 -34 64 -150 109 -58 23 -120 50 -138 61 -43 27
-71 89 -72 160 0 67 -23 167 -49 218 -52 101 -148 140 -222 89z m1181 -1837
c22 -11 47 -31 55 -43 24 -37 30 -135 12 -179 -22 -53 -93 -126 -152 -155 -60
-30 -105 -70 -105 -94 0 -54 41 -77 97 -54 19 8 61 15 93 15 49 0 65 -5 106
-32 52 -35 111 -126 121 -184 12 -71 -47 -100 -87 -44 -42 59 -152 119 -247
135 -37 6 -45 3 -68 -19 -14 -14 -25 -33 -25 -42 0 -9 28 -44 61 -77 69 -68
98 -123 106 -202 8 -74 0 -96 -53 -150 l-46 -48 -18 30 c-26 44 -163 77 -290
71 -81 -4 -94 -7 -147 -40 l-58 -37 -2 37 c-8 119 -52 225 -128 310 -57 64
-97 86 -137 78 l-30 -6 7 43 c15 89 36 120 111 157 61 31 78 35 139 33 51 -1
82 -7 112 -23 48 -24 76 -20 99 14 17 27 7 66 -29 105 -41 44 -137 100 -195
112 -97 20 -122 73 -50 110 81 42 248 11 290 -53 8 -13 25 -50 37 -83 28 -74
46 -95 82 -95 49 0 62 34 64 169 3 161 16 186 133 247 38 20 96 17 142 -6z
m-2055 -9 c102 -46 129 -99 139 -265 6 -110 19 -136 66 -136 34 0 43 10 68 78
44 116 113 165 232 166 109 1 155 -32 131 -95 -8 -23 -17 -27 -65 -32 -108
-11 -246 -118 -246 -190 0 -59 39 -75 106 -42 79 39 155 35 253 -14 71 -36 79
-44 95 -84 9 -25 20 -62 23 -82 6 -36 6 -36 -21 -24 -58 27 -139 -49 -219
-206 -37 -71 -41 -88 -42 -150 l0 -71 -54 33 c-69 41 -98 47 -229 41 -153 -7
-211 -35 -212 -100 -1 -20 -9 -14 -60 40 l-60 63 0 77 c0 98 22 148 95 219 35
33 55 61 55 75 -1 107 -195 64 -323 -72 -42 -43 -48 -46 -78 -30 -26 15 -24
57 6 132 55 135 159 186 288 142 44 -15 49 -15 72 0 32 21 33 67 3 96 -13 12
-45 33 -71 47 -62 31 -133 97 -158 145 -22 43 -24 115 -5 168 9 26 25 42 62
62 57 32 94 34 149 9z m828 -937 c6 -115 6 -117 -18 -136 -14 -11 -25 -26 -25
-34 0 -21 -17 -17 -34 8 -23 33 -20 63 19 162 19 49 35 95 35 103 0 7 4 13 8
13 5 0 12 -52 15 -116z m316 6 c45 -103 49 -134 25 -168 -17 -25 -34 -29 -34
-9 0 8 -9 22 -20 32 -18 16 -20 31 -20 133 0 64 2 113 4 111 2 -2 22 -47 45
-99z m671 -314 c0 -3 -39 -29 -87 -58 -72 -43 -97 -53 -135 -54 -57 -1 -61 11
-19 58 26 30 36 33 122 44 121 15 119 15 119 10z m-1558 -22 c59 -5 71 -9 93
-36 38 -45 33 -63 -18 -63 -33 0 -63 12 -135 53 -51 29 -92 55 -92 58 0 2 19
2 43 -1 23 -3 72 -7 109 -11z m1037 -94 c-6 -24 -8 -55 -4 -67 9 -37 -19 -86
-81 -142 -33 -29 -67 -57 -77 -62 -16 -9 -17 -6 -12 43 13 103 33 155 72 185
20 16 52 42 72 60 20 17 37 31 38 29 1 -1 -3 -22 -8 -46z m1357 18 c52 -46 94
-138 94 -207 0 -51 -4 -60 -55 -126 -56 -74 -65 -99 -42 -127 26 -34 51 -30
162 27 97 49 114 55 170 55 55 0 67 -4 103 -32 60 -48 84 -84 90 -133 6 -56
-21 -102 -85 -144 -40 -27 -55 -31 -113 -31 -58 0 -78 5 -159 45 -98 48 -140
55 -165 29 -18 -17 -21 -60 -6 -69 6 -4 33 -36 60 -72 58 -77 63 -108 29 -200
-21 -56 -101 -153 -126 -153 -6 0 -18 12 -28 26 -16 24 -16 30 0 89 21 77 17
194 -9 247 -21 43 -64 65 -95 49 -26 -15 -37 -35 -45 -91 -13 -83 -77 -165
-166 -210 -48 -24 -68 -25 -136 -3 l-52 16 21 29 c19 26 20 33 9 86 -26 126
-152 309 -226 328 -24 6 -37 24 -18 24 5 0 30 14 57 32 73 48 170 211 190 319
7 36 -6 76 -29 91 -16 11 -5 17 66 34 63 16 66 16 109 -6 84 -42 169 -144 169
-202 0 -51 20 -98 45 -104 46 -11 72 3 96 53 33 67 34 197 2 265 l-22 47 20
26 c27 33 41 32 85 -7z m-1933 -52 c20 -15 46 -44 56 -64 21 -42 48 -168 38
-178 -10 -10 -144 114 -155 144 -6 15 -13 48 -16 74 -3 27 -9 60 -12 75 l-7
28 29 -26 c16 -14 46 -38 67 -53z m-1357 39 c16 -24 15 -30 -6 -101 -24 -82
-23 -135 6 -216 19 -55 41 -78 74 -78 37 0 56 26 63 87 7 66 29 108 81 156 72
67 120 90 174 84 26 -3 60 -10 75 -16 l29 -11 -23 -18 c-33 -28 -27 -68 31
-196 60 -132 100 -184 170 -219 l50 -25 -55 -31 c-68 -39 -112 -97 -161 -216
-42 -103 -48 -162 -20 -194 18 -20 18 -21 -10 -32 -16 -6 -52 -14 -81 -17 -41
-3 -60 0 -88 17 -99 58 -165 140 -165 204 0 15 -7 43 -14 62 -13 30 -20 35
-49 35 -43 0 -61 -20 -82 -94 -21 -72 -16 -173 11 -229 17 -36 17 -38 -3 -65
-28 -37 -42 -37 -86 -1 -42 34 -81 103 -91 162 -10 55 16 135 65 195 47 60 50
97 8 121 -29 16 -22 18 -179 -64 -46 -25 -67 -30 -127 -30 -63 0 -76 3 -114
30 -119 84 -120 193 -1 278 38 28 50 31 113 31 63 -1 78 -6 172 -53 87 -44
107 -51 129 -42 25 9 38 29 38 57 0 8 -20 40 -44 71 -69 91 -81 154 -49 248
18 55 91 135 123 135 11 0 27 -11 36 -25z m2577 -168 c-16 -17 -44 -53 -62
-79 -37 -56 -73 -77 -118 -71 -29 5 -48 23 -23 23 5 0 13 15 18 33 7 28 21 39
107 84 55 28 102 50 104 47 3 -2 -9 -19 -26 -37z m-1763 -94 c0 -9 7 -25 17
-35 21 -23 13 -30 -36 -32 -26 0 -47 6 -61 19 -18 16 -85 106 -114 153 -4 7
38 -10 93 -38 67 -33 101 -56 101 -67z m433 -260 c28 -14 45 -28 41 -34 -4 -6
-31 -22 -61 -35 -78 -35 -144 -32 -222 8 l-63 32 38 13 c20 7 43 18 51 24 39
33 141 30 216 -8z m937 12 c27 -14 56 -25 65 -25 8 0 15 -4 15 -10 0 -5 -6
-10 -13 -10 -7 0 -29 -9 -50 -20 -50 -27 -144 -27 -225 1 -34 11 -62 24 -62
28 0 10 158 60 193 60 15 1 50 -10 77 -24z m279 -270 c16 -8 43 -36 60 -64 18
-27 39 -55 47 -62 8 -7 19 -21 25 -31 9 -16 7 -17 -18 -7 -14 5 -61 28 -103
49 -56 30 -76 46 -77 61 -1 12 -9 29 -18 39 -16 17 -15 19 7 23 42 8 49 7 77
-8z m-1632 -3 c10 -6 8 -17 -7 -47 -16 -31 -37 -48 -107 -87 -49 -26 -91 -48
-95 -48 -11 0 93 150 119 170 26 20 68 26 90 12z m607 -156 c-18 -74 -24 -81
-118 -159 l-46 -38 6 63 c9 100 19 120 97 194 72 69 72 69 75 40 2 -15 -4 -60
-14 -100z m399 76 c63 -46 93 -100 100 -182 3 -36 8 -74 12 -85 6 -14 -3 -10
-31 16 -21 20 -54 46 -73 59 -43 29 -68 87 -77 174 -8 77 -13 76 69 18z m-842
-234 c34 1 36 -11 9 -55 -22 -36 -31 -39 -143 -48 -43 -3 -90 -11 -105 -16
-43 -16 -16 4 93 69 55 33 104 58 109 55 5 -3 22 -6 37 -5z m1389 -52 c52 -32
84 -55 70 -52 -14 3 -61 9 -105 12 -86 7 -128 23 -145 53 -20 38 -13 46 38 46
39 -1 62 -10 142 -59z m-1684 -200 c40 -24 92 -37 165 -43 113 -9 178 3 244
43 32 19 58 34 59 34 1 0 0 -16 -2 -35 -7 -55 15 -122 70 -219 82 -143 150
-197 204 -161 31 20 31 10 4 -77 -23 -74 -32 -84 -117 -127 -78 -39 -172 -43
-239 -11 -50 24 -89 15 -104 -25 -14 -38 2 -67 67 -120 71 -59 125 -84 178
-85 54 0 65 -9 68 -55 2 -34 -2 -41 -28 -55 -50 -25 -169 -20 -230 10 -46 23
-54 33 -95 113 -49 97 -65 112 -103 98 -33 -13 -38 -32 -46 -165 -8 -124 -22
-161 -73 -199 -82 -61 -140 -72 -208 -37 -47 24 -67 59 -76 132 -11 93 44 177
160 244 34 20 71 45 84 57 30 28 29 72 -3 93 -22 15 -28 15 -76 -1 -143 -48
-253 18 -306 182 -16 50 -16 54 2 73 27 30 48 25 99 -25 60 -57 125 -95 193
-111 62 -14 96 -7 112 25 17 32 14 37 -57 114 -76 83 -92 120 -92 217 0 67 12
91 84 168 l31 33 6 -37 c4 -20 15 -42 25 -48z m1972 -109 c-6 -96 -34 -155
-102 -219 -62 -58 -71 -91 -36 -123 47 -42 210 16 299 106 53 54 72 60 95 28
20 -29 11 -69 -32 -147 -49 -90 -96 -122 -178 -122 -35 0 -84 5 -108 12 -40
11 -47 10 -66 -7 -27 -24 -26 -66 3 -92 12 -12 45 -33 74 -47 71 -35 114 -75
147 -137 25 -46 28 -58 23 -113 -8 -81 -12 -90 -58 -121 -60 -42 -111 -43
-184 -2 -88 50 -105 84 -109 230 -3 129 -17 167 -60 167 -44 0 -55 -11 -82
-83 -38 -99 -51 -116 -109 -143 -67 -32 -184 -34 -232 -4 -18 11 -33 24 -33
29 0 27 26 62 49 67 101 20 151 46 227 116 35 32 44 47 44 74 0 18 -7 40 -16
48 -20 21 -68 20 -99 0 -14 -9 -53 -18 -88 -21 -116 -9 -233 56 -255 143 -25
98 -25 95 4 84 52 -20 147 57 207 169 34 61 69 198 61 235 l-6 28 44 -30 c24
-16 61 -35 83 -41 62 -17 181 -12 270 12 68 19 83 27 100 54 l20 32 54 -55 54
-55 -5 -72z m-841 44 c-7 -54 -73 -205 -81 -186 -3 9 -6 58 -6 109 0 80 3 95
20 111 11 10 20 28 20 39 1 19 3 19 26 -8 20 -23 25 -37 21 -65z m-397 65 c0
-8 12 -24 26 -35 l26 -20 -9 -123 -8 -122 -38 99 c-48 125 -54 158 -33 190 18
28 36 33 36 11z"/>
</g>
</svg>
